<svg xmlns="http://www.w3.org/2000/svg" viewBox="0 0 512 512" fill="#8b5cf6">
    <path d="M465.9 440.7c8.1 2.4 15.8-4.7 14.3-13.1l-24.1-138.4c-.1-.4-.1-.8-.2-1.2l-39.6-118.8c-2.9-8.8-11.4-14.7-20.7-14.7H130.7c-9.3 0-17.8 5.9-20.7 14.7L70.4 188c-.1.4-.1.8-.2 1.2L46.1 327.6c-1.5 8.4 6.2 15.5 14.3 13.1l102.2-29.2c2-.6 4.1-.3 5.9.8 46.1 28.2 101.4 28.2 147.5 0 1.8-1.1 3.9-1.4 5.9-.8l102.2 29.2h1.8zM186.2 256c-13.3 0-24-10.7-24-24s10.7-24 24-24 24 10.7 24 24-10.7 24-24 24zm139.6 0c-13.3 0-24-10.7-24-24s10.7-24 24-24 24 10.7 24 24-10.7 24-24 24z"/>
</svg>
